<?xml version="1.0" standalone="no"?>
<!DOCTYPE svg PUBLIC "-//W3C//DTD SVG 20010904//EN"
 "http://www.w3.org/TR/2001/REC-SVG-20010904/DTD/svg10.dtd">
<svg version="1.0" xmlns="http://www.w3.org/2000/svg"
 width="1200.000000pt" height="1200.000000pt" viewBox="0 0 1200.000000 1200.000000"
 preserveAspectRatio="xMidYMid meet">
<metadata>
Created by potrace 1.11, written by Peter Selinger 2001-2013
</metadata>
<g transform="translate(0.000000,1200.000000) scale(0.100000,-0.100000)"
fill="#000000" stroke="none">
<path d="M4238 11991 c-1 -5 -79 -35 -173 -66 -93 -32 -183 -63 -200 -70 -62
-26 -190 -75 -197 -75 -4 0 -17 -4 -30 -9 -13 -5 -27 -9 -32 -9 -5 0 -12 -5
-15 -11 -4 -6 -18 -12 -31 -13 -14 -2 -27 -6 -30 -9 -7 -7 -163 -79 -173 -79
-6 0 -161 -71 -199 -91 -10 -5 -25 -9 -33 -9 -8 0 -15 -4 -15 -9 0 -5 -10 -13
-22 -17 -13 -3 -31 -13 -40 -22 -10 -8 -18 -12 -18 -9 0 4 -30 -10 -67 -29
-38 -20 -106 -57 -153 -82 -83 -44 -181 -99 -230 -130 -14 -9 -32 -17 -40 -19
-8 -1 -16 -7 -18 -12 -2 -6 -10 -11 -18 -11 -8 0 -14 -4 -14 -10 0 -5 -6 -10
-14 -10 -7 0 -19 -7 -26 -15 -7 -9 -27 -22 -44 -30 -17 -9 -100 -65 -185 -125
-84 -61 -157 -110 -162 -110 -5 0 -38 -29 -74 -65 -36 -36 -70 -65 -75 -65 -5
0 -48 -38 -95 -85 -47 -47 -92 -85 -100 -85 -8 0 -15 -5 -15 -11 0 -13 -127
-139 -140 -139 -5 0 -11 -9 -15 -20 -3 -11 -42 -57 -85 -102 -109 -115 -114
-121 -189 -213 -71 -88 -84 -104 -163 -210 -28 -38 -63 -86 -78 -105 -14 -19
-41 -59 -60 -87 -18 -29 -36 -53 -40 -53 -4 0 -14 -17 -24 -37 -17 -39 -58
-110 -73 -128 -13 -15 -103 -176 -103 -185 0 -4 -11 -19 -24 -33 -13 -14 -22
-28 -20 -30 2 -2 -9 -30 -25 -62 -17 -32 -28 -62 -25 -66 2 -4 -3 -9 -11 -13
-8 -3 -15 -11 -15 -18 0 -6 -8 -30 -19 -52 -10 -23 -28 -66 -40 -96 -12 -30
-26 -64 -30 -75 -5 -11 -16 -38 -24 -60 -53 -139 -70 -190 -107 -320 -12 -44
-30 -107 -40 -140 -10 -33 -21 -78 -24 -100 -7 -44 -10 -58 -26 -120 -9 -36
-21 -108 -36 -215 -10 -67 -11 -75 -17 -90 -3 -8 -9 -67 -12 -130 -4 -63 -9
-133 -11 -155 -12 -124 -5 -579 11 -715 2 -19 7 -64 10 -100 4 -36 8 -83 11
-105 4 -36 52 -339 59 -375 2 -8 11 -49 20 -90 9 -41 18 -86 21 -100 3 -14 21
-86 41 -160 19 -74 40 -155 45 -180 6 -25 14 -50 19 -56 6 -8 45 -118 54 -154
1 -3 9 -23 18 -44 10 -22 20 -51 24 -65 3 -14 12 -35 19 -46 7 -11 18 -40 24
-65 7 -25 16 -50 22 -57 15 -19 138 -267 138 -280 0 -6 11 -24 24 -40 12 -15
25 -33 27 -38 10 -27 142 -235 149 -235 4 0 13 -13 20 -30 7 -16 16 -30 20
-30 4 0 13 -13 20 -30 7 -16 15 -30 19 -30 3 0 17 -20 30 -45 13 -25 28 -45
33 -45 6 0 20 -12 32 -28 108 -139 358 -389 506 -507 41 -33 77 -63 80 -67 3
-4 21 -18 40 -31 19 -13 55 -38 80 -56 25 -18 64 -44 88 -59 23 -15 40 -31 39
-37 -6 -15 -55 -7 -252 41 -552 136 -1110 334 -1585 562 -111 53 -125 57 -128
41 -2 -11 4 -26 12 -35 9 -8 16 -22 16 -31 0 -14 35 -119 121 -358 22 -60 43
-119 48 -130 5 -11 25 -60 45 -110 56 -144 152 -363 166 -380 7 -8 9 -15 4
-15 -4 0 -3 -5 4 -12 7 -7 12 -18 12 -25 0 -8 4 -19 10 -26 5 -7 59 -111 120
-231 60 -121 118 -228 128 -239 9 -10 16 -22 16 -26 -3 -15 9 -30 20 -24 6 3
8 3 4 -2 -8 -8 26 -80 42 -90 6 -4 8 -11 5 -16 -4 -5 -1 -9 4 -9 6 0 11 -5 11
-10 0 -6 9 -23 19 -38 11 -15 61 -90 111 -167 51 -77 96 -142 99 -145 4 -3 18
-21 31 -40 30 -43 132 -171 203 -253 71 -83 394 -408 486 -488 40 -35 83 -73
96 -84 12 -11 39 -33 60 -50 22 -16 49 -40 61 -52 13 -13 26 -23 29 -23 5 0
126 -90 135 -101 6 -7 300 -209 305 -209 2 0 52 -29 111 -65 136 -82 409 -217
574 -283 423 -170 800 -254 1340 -301 125 -11 542 -6 700 9 427 38 858 124
1190 235 74 25 142 47 151 49 38 10 319 131 418 181 173 86 395 219 511 305
83 62 167 126 190 146 141 123 192 164 200 164 6 0 10 5 10 12 0 6 38 50 84
97 148 151 274 306 404 495 36 53 56 52 49 -3 -10 -78 -108 -465 -152 -603
-14 -43 -32 -101 -40 -130 -14 -54 -87 -264 -145 -418 -17 -47 -40 -110 -51
-139 -11 -30 -26 -65 -34 -78 -8 -12 -15 -29 -15 -38 0 -8 -4 -23 -9 -33 -10
-18 -26 -54 -84 -187 -19 -44 -57 -125 -85 -180 l-50 -100 30 -3 c17 -2 34 0
37 5 3 5 35 17 71 28 36 10 77 24 92 32 15 7 39 14 53 15 14 1 25 5 25 8 0 3
20 11 45 18 25 7 64 21 88 31 23 11 54 22 69 25 15 3 56 20 91 36 36 17 71 30
79 30 8 0 18 4 23 9 6 5 39 19 75 32 36 12 70 26 75 30 6 4 37 18 70 32 81 34
247 111 318 147 31 17 64 30 72 30 8 0 15 3 15 8 0 8 49 32 67 32 7 0 13 4 13
9 0 4 26 20 58 35 31 15 78 40 103 54 139 81 178 102 188 102 6 0 11 4 11 8 0
4 26 23 57 42 32 19 79 49 105 67 26 18 53 34 59 35 6 2 27 18 47 36 20 17 40
32 45 32 5 0 22 10 37 22 15 13 37 30 50 38 13 8 35 25 50 37 15 13 30 23 33
23 4 0 17 10 30 23 54 52 96 86 124 101 17 8 37 26 46 40 9 13 26 27 37 31 11
3 20 11 20 16 0 5 33 41 73 79 39 39 75 73 79 77 149 151 268 276 268 281 0 4
22 30 48 58 55 60 93 106 159 191 26 35 72 94 102 133 30 38 58 70 62 70 5 0
9 7 9 14 0 19 58 106 71 106 5 0 12 12 15 27 6 24 34 71 85 145 11 15 24 38
29 50 6 13 24 46 40 73 17 28 33 58 36 67 4 10 11 18 16 18 5 0 7 4 3 9 -3 5
-1 12 4 15 5 3 23 35 40 71 16 36 35 65 40 65 6 0 8 6 6 13 -3 7 4 30 15 52
19 37 83 192 125 308 10 26 22 47 27 47 5 0 7 4 3 10 -3 5 2 26 11 47 9 21 20
54 24 73 5 19 20 76 35 125 14 50 28 101 31 114 22 103 35 146 44 149 5 2 10
25 11 50 0 26 4 70 10 97 12 66 25 155 44 315 25 212 26 854 0 990 -1 8 -6 42
-10 75 -15 139 -25 207 -45 315 -12 63 -25 138 -30 166 -4 28 -22 106 -39 175
-17 68 -32 133 -34 144 -2 11 -7 27 -10 35 -3 8 -18 58 -32 110 -15 52 -32
109 -40 125 -7 17 -18 48 -25 70 -7 22 -20 58 -30 80 -43 100 -80 202 -80 218
0 9 -4 17 -8 17 -10 0 -42 65 -42 85 0 8 -4 15 -10 15 -5 0 -10 9 -10 20 0 11
-4 20 -8 20 -5 0 -27 39 -51 88 -40 83 -85 162 -152 265 -17 26 -28 54 -25 62
3 8 -3 16 -14 20 -11 3 -30 21 -42 38 -12 18 -27 37 -33 43 -5 6 -21 30 -35
54 -14 24 -40 59 -57 78 -18 19 -56 64 -85 99 -29 36 -111 123 -183 195 -192
191 -210 208 -219 208 -4 0 -13 6 -20 13 -41 41 -232 187 -245 187 -4 0 -16 9
-26 20 -10 11 -23 20 -29 20 -18 1 -69 47 -63 57 7 11 117 -12 368 -76 504
-130 1115 -353 1513 -553 43 -21 81 -37 84 -34 3 3 -21 83 -53 178 -195 581
-455 1155 -727 1604 -54 89 -125 199 -141 219 -4 6 -31 44 -60 86 -55 79 -61
87 -179 234 -82 102 -67 85 -252 279 -76 80 -143 143 -148 140 -4 -3 -7 0 -6
8 2 7 -3 12 -9 11 -7 -2 -12 1 -10 6 2 9 -17 28 -144 141 -40 36 -83 75 -96
87 -13 12 -23 20 -23 18 0 -2 -15 10 -32 26 -18 16 -85 69 -148 117 -63 48
-117 89 -120 92 -3 3 -12 10 -21 15 -9 6 -71 47 -137 93 -67 45 -126 82 -132
82 -5 0 -10 3 -10 8 0 4 -17 16 -37 27 -21 11 -65 36 -98 56 -33 20 -118 65
-190 101 -487 243 -960 380 -1520 439 -132 14 -635 18 -810 7 -303 -20 -714
-91 -1019 -174 -543 -149 -1013 -379 -1416 -693 -276 -215 -567 -527 -760
-816 -18 -27 -35 -52 -37 -54 -2 -3 -8 0 -15 7 -8 8 -8 25 0 64 27 124 108
441 136 531 7 23 23 78 36 122 13 44 29 85 35 90 6 6 9 17 8 25 -2 8 11 53 28
100 17 47 35 102 41 123 6 20 14 37 19 37 5 0 9 7 9 15 0 30 44 151 62 168 10
10 18 30 18 44 0 36 61 183 76 183 6 0 14 19 17 43 3 24 25 83 47 131 23 48
52 113 66 144 14 31 31 63 38 72 7 8 16 27 20 43 6 25 4 27 -28 27 -19 0 -36
-4 -38 -9z m3322 -3640 c0 -11 -5 -23 -10 -26 -6 -4 -17 -22 -25 -41 -8 -19
-19 -34 -24 -34 -6 0 -11 -7 -11 -15 0 -20 -32 -85 -42 -85 -4 0 -8 -8 -8 -18
0 -10 -4 -22 -9 -27 -4 -6 -28 -46 -51 -90 -24 -44 -49 -87 -56 -96 -8 -8 -14
-21 -14 -28 0 -7 -11 -29 -25 -49 -14 -20 -25 -42 -25 -48 0 -7 -3 -14 -7 -16
-5 -1 -24 -34 -43 -73 -19 -38 -38 -71 -42 -73 -5 -2 -8 -10 -8 -18 0 -8 -4
-14 -8 -14 -5 0 -15 -18 -22 -40 -8 -23 -19 -44 -25 -48 -6 -4 -17 -23 -25
-42 -7 -19 -17 -40 -22 -46 -4 -6 -22 -37 -39 -69 -17 -31 -39 -67 -50 -78
-10 -11 -19 -27 -19 -35 0 -17 -67 -140 -87 -160 -7 -7 -13 -18 -13 -24 0 -18
-61 -132 -81 -151 -10 -10 -19 -26 -19 -37 0 -10 -3 -20 -7 -22 -5 -1 -15 -19
-24 -38 -15 -33 -15 -37 0 -56 9 -11 29 -24 45 -28 16 -4 43 -18 61 -32 17
-13 35 -24 39 -24 5 0 33 -17 107 -65 8 -5 32 -21 52 -33 20 -13 37 -28 37
-33 0 -5 5 -9 10 -9 15 0 109 -73 109 -85 1 -6 14 -18 30 -28 69 -41 346 -317
385 -384 4 -9 16 -23 25 -33 54 -57 181 -232 181 -250 0 -6 9 -21 20 -33 22
-24 61 -81 93 -137 11 -19 33 -57 49 -85 49 -85 187 -371 216 -450 10 -27 23
-59 27 -70 5 -11 9 -22 10 -25 4 -10 17 -46 25 -65 23 -58 40 -113 40 -131 0
-11 7 -29 15 -40 30 -43 81 -274 61 -274 -7 0 -132 67 -151 80 -5 4 -50 29
-100 55 -49 26 -160 86 -245 133 -152 82 -211 114 -347 189 -38 20 -102 55
-143 78 -41 23 -115 64 -165 90 -193 103 -240 128 -250 135 -23 17 -187 102
-189 98 -2 -1 -18 -32 -36 -68 -28 -57 -91 -166 -112 -195 -205 -280 -377
-468 -570 -622 -40 -32 -84 -68 -98 -81 -36 -33 -318 -220 -425 -282 -197
-113 -487 -242 -725 -323 -132 -45 -352 -108 -358 -103 -5 5 36 83 57 109 8 9
11 17 8 17 -4 0 7 22 23 49 17 26 30 53 30 58 0 5 9 18 20 28 11 10 20 26 20
35 0 10 7 23 15 30 8 7 15 19 15 26 0 8 10 31 23 52 13 20 45 78 72 127 60
113 67 125 206 378 63 114 120 219 128 233 7 15 22 29 33 32 13 3 16 7 8 12
-9 6 -5 22 15 61 14 30 30 56 33 59 4 3 29 48 55 100 53 105 63 123 89 162 22
33 15 54 -20 63 -14 3 -47 22 -73 41 -26 19 -52 34 -58 34 -24 0 -283 182
-348 245 -11 11 -30 27 -41 35 -22 16 -120 110 -138 132 -6 7 -26 27 -45 43
-19 17 -49 49 -67 70 -18 22 -48 58 -67 80 -105 122 -148 178 -199 255 -30 47
-59 90 -63 95 -20 26 -83 125 -83 131 0 4 -20 40 -45 81 -25 42 -49 88 -52
104 -3 16 -9 29 -14 29 -12 0 -69 117 -69 141 0 10 -4 19 -9 19 -9 0 -35 54
-31 66 1 4 -3 10 -9 13 -6 4 -21 37 -34 73 -13 36 -28 72 -34 80 -7 7 -14 25
-17 40 -2 14 -10 36 -16 48 -6 12 -14 33 -16 47 -3 14 -11 38 -19 54 -8 15
-15 39 -15 54 0 14 -4 25 -9 25 -5 0 -11 12 -14 28 -13 65 -30 128 -37 137
-14 17 -23 105 -12 105 6 0 33 -13 59 -28 26 -16 98 -54 158 -87 61 -32 115
-61 120 -65 6 -4 55 -31 110 -60 55 -29 159 -86 230 -125 72 -40 159 -88 195
-107 36 -19 99 -53 140 -76 41 -22 190 -103 330 -179 l255 -139 45 86 c223
417 658 846 1160 1142 213 126 576 286 832 368 280 89 288 90 288 61z"/>
</g>
</svg>
